<?xml version="1.0" encoding="UTF-8" standalone="no"?>
<!-- Created with Inkscape (http://www.inkscape.org/) -->

<svg
   width="5128"
   height="5128"
   viewBox="0 0 5128 5128.0002"
   version="1.1"
   id="svg15237"
   sodipodi:docname="logo.svg"
   inkscape:version="1.1.2 (0a00cf5339, 2022-02-04, custom)"
   inkscape:export-filename="/home/alex/Code/diplomarbeit/shulker/shulker-docs/images/logo.png"
   inkscape:export-xdpi="96"
   inkscape:export-ydpi="96"
   xmlns:inkscape="http://www.inkscape.org/namespaces/inkscape"
   xmlns:sodipodi="http://sodipodi.sourceforge.net/DTD/sodipodi-0.dtd"
   xmlns="http://www.w3.org/2000/svg"
   xmlns:svg="http://www.w3.org/2000/svg">
  <sodipodi:namedview
     id="namedview15239"
     pagecolor="#ffffff"
     bordercolor="#666666"
     borderopacity="1.0"
     inkscape:pageshadow="2"
     inkscape:pageopacity="0.0"
     inkscape:pagecheckerboard="0"
     inkscape:document-units="px"
     showgrid="true"
     units="px"
     inkscape:showpageshadow="false"
     showborder="true"
     inkscape:snap-bbox="true"
     inkscape:bbox-nodes="true"
     inkscape:snap-bbox-midpoints="true"
     inkscape:snap-global="true"
     inkscape:zoom="0.37972086"
     inkscape:cx="1755.2367"
     inkscape:cy="1006.0021"
     inkscape:window-width="1874"
     inkscape:window-height="995"
     inkscape:window-x="0"
     inkscape:window-y="0"
     inkscape:window-maximized="1"
     inkscape:current-layer="layer1"
     inkscape:snap-bbox-edge-midpoints="true"
     showguides="false">
    <inkscape:grid
       type="axonomgrid"
       id="grid15241"
       units="px"
       spacingy="512.00001"
       empspacing="1"
       originx="0"
       enabled="false" />
  </sodipodi:namedview>
  <defs
     id="defs15234" />
  <g
     inkscape:label="Layer 1"
     inkscape:groupmode="layer"
     id="layer1">
    <path
       style="fill:none;stroke:#000000;stroke-width:1px;stroke-linecap:butt;stroke-linejoin:miter;stroke-opacity:1"
       d="m 1330.215,768.00002 443.4051,-256.00001 443.405,256.00001 V 1280 l -443.405,256 -443.4051,-256 V 768.00001"
       id="path15276" />
    <path
       style="fill:none;stroke:#000000;stroke-width:0.874271px;stroke-linecap:butt;stroke-linejoin:miter;stroke-opacity:1"
       d="m 1385.9637,800.18657 387.6564,-223.8135 387.6563,223.8135 V 1247.8135 L 1773.6201,1471.627 1385.9637,1247.8135 V 800.18656"
       id="path15276-7" />
    <text
       xml:space="preserve"
       style="font-style:normal;font-weight:normal;font-size:512px;line-height:1.25;font-family:sans-serif;fill:#000000;fill-opacity:1;stroke:none"
       x="1602.3561"
       y="1207.808"
       id="text17488"><tspan
         sodipodi:role="line"
         id="tspan17486"
         x="1602.3561"
         y="1207.808"
         style="font-size:512px">S</tspan></text>
    <path
       style="opacity:0.91;fill:#00ff00;stroke-width:0.283358"
       d="m 1915.2327,1402.2695 0.014,-11.8302 123.2468,-71.123 123.2468,-71.1229 2e-4,-97.8295 3e-4,-97.8294 h 27.3441 27.3441 v 113.5558 113.5559 l -116.4484,67.2267 -116.4456,67.2268 h -34.158 -34.1579 z"
       id="path23303" />
    <path
       style="opacity:0.91;fill:#00ff00;stroke-width:1.13502"
       d="m 1552.7083,1407.3559 -220.7615,-127.4957 -0.2758,-255.7256 -0.2758,-255.7256 198.1057,-114.35334 198.1056,-114.35333 h 46.0513 46.0512 l 197.9257,114.27612 197.9257,114.27612 v 141.67104 141.67109 h -26.6681 -26.6681 l -0.2886,-126.12999 -0.2887,-126.12994 -193.5025,-111.71991 c -106.4264,-61.44594 -194.3077,-111.50934 -195.2918,-111.252 -0.9841,0.25734 -88.7166,50.6539 -194.9611,111.99237 l -193.1719,111.52447 0.2866,224.2799 0.2865,224.28 194.0427,112.03 c 185.0739,106.8518 194.176,111.9609 196.9261,110.5358 1.5859,-0.8218 33.4013,-19.1198 70.7009,-40.6621 l 67.8175,-39.1679 v 11.7958 11.7958 l 32.9538,0.3009 32.9538,0.3009 -97.2906,56.1835 c -53.5099,30.9009 -100.1339,57.7841 -103.6089,59.7404 l -6.3182,3.557 z"
       id="path23342" />
    <path
       style="opacity:0.91;fill:#00ff00;stroke-width:1.57062"
       d="m 1741.0358,532.19505 c 6.9108,-3.9915 17.0921,-9.88094 22.6252,-13.08765 l 10.0602,-5.83037 21.0921,12.20139 c 11.6006,6.71076 21.5036,12.61297 22.0067,13.11602 0.503,0.50305 -19.1698,0.90186 -43.7173,0.88626 l -44.6319,-0.0284 z"
       id="path23381" />
    <path
       style="opacity:0.91;fill:#00ff00;stroke-width:0.312712"
       d="m 1727.7351,539.69187 c 0.258,-0.086 0.664,-0.21852 0.9022,-0.29438 0.6307,-0.20091 55.2197,-0.0765 74.6179,0.1701 12.0797,0.15354 4.0245,0.22016 -29.7077,0.24569 -25.4548,0.0193 -46.0703,-0.0354 -45.8124,-0.12141 z"
       id="path23420" />
    <path
       style="opacity:0.91;fill:#00ff00;stroke-width:0.312712"
       d="m 1728.1011,539.74026 c 0.255,-0.25503 56.3411,-0.38903 68.2744,-0.16313 7.109,0.13458 -2.9647,0.22706 -28.7435,0.26388 -21.8286,0.0312 -39.6175,-0.0142 -39.5309,-0.10075 z"
       id="path23459" />
    <path
       style="opacity:0.91;fill:#00ff00;stroke-width:0.312712"
       d="M 2076.4093,750.00011 C 1913.0158,655.65558 1852.597,620.91279 1814.3564,599.31127 c -6.7936,-3.83764 -17.6291,-10.00617 -24.0788,-13.70784 -6.4497,-3.70167 -12.8176,-7.35317 -14.1509,-8.11445 -1.7061,-0.9741 -2.6384,-1.33038 -3.1471,-1.2027 -0.9995,0.25087 -57.8982,32.83656 -140.8801,80.68167 -10.0317,5.78398 -18.299,10.51634 -18.3719,10.51634 -0.073,0 -0.1324,-13.91665 -0.1324,-30.92588 v -30.92587 l 56.9418,-32.86742 c 31.3179,-18.07709 57.1496,-32.86743 57.4035,-32.86743 0.254,0 0.9098,-0.32991 1.4573,-0.73314 2.5061,-1.84575 44.0805,-25.58485 44.5786,-25.45457 0.6393,0.16718 23.2402,13.21331 34.7322,20.04877 l 7.9551,4.73173 -1.5445,0.2087 c -0.8495,0.11478 -7.7362,0.32587 -15.3039,0.46907 l -13.7593,0.26037 7.036,0.19418 c 3.8698,0.1068 11.4712,0.21234 16.8919,0.23454 l 9.8559,0.0403 159.0088,91.80321 c 87.4547,50.49177 159.1149,91.90651 159.2447,92.03275 0.1299,0.12625 0.2002,14.11157 0.1564,31.07852 l -0.08,30.84898 z"
       id="path23498" />
    <path
       style="opacity:0.91;fill:#00ff00;stroke-width:0.193098"
       d="m 1917.7666,596.25426 -98.0831,-56.64104 -7.5417,-0.0169 c -9.6947,-0.0217 -11.3767,-0.23526 -3.4865,-0.44259 6.3635,-0.16721 8.1247,-0.29668 8.0862,-0.59445 -0.044,-0.33814 -9.2523,-5.81085 -29.9063,-17.77342 -7.1157,-4.12131 -13.0245,-7.49085 -13.1307,-7.48786 -0.1062,0.003 -3.9295,2.17427 -8.4963,4.82505 -21.8545,12.68543 -36.7659,21.26465 -37.1884,21.39625 -0.2562,0.0798 -8.4432,4.74856 -18.1934,10.37504 -9.7502,5.62648 -17.7807,10.17692 -17.8455,10.11209 -0.065,-0.0648 -0.082,-0.14676 -0.037,-0.18206 0.044,-0.0353 18.4106,-10.64202 40.8142,-23.5705 22.4036,-12.92847 40.8686,-23.46778 41.0334,-23.42069 0.3647,0.10422 241.7912,139.49655 242.0458,139.74988 0.099,0.0986 0.1426,0.20925 0.097,0.2458 -0.046,0.0366 -44.2211,-25.42202 -98.1669,-56.57459 z"
       id="path23537" />
    <path
       style="opacity:0.91;fill:#00ff00;stroke-width:1.49785"
       d="m 1552.5221,1406.4928 -218.6862,-126.3994 -1.0958,-183.2023 c -0.6027,-100.76126 -0.9397,-215.81458 -0.7489,-255.67404 l 0.3468,-72.47176 47.1823,-27.24649 c 90.1993,-52.08758 231.6071,-133.91658 262.8728,-152.11755 71.1039,-41.39237 129.9408,-74.8691 131.5721,-74.86133 2.7036,0.0129 35.8958,19.99201 36.5479,21.99902 0.3799,1.16885 -1.9121,1.9816 -6.6304,2.35126 -5.1916,0.40672 -3.9636,0.64054 4.3849,0.83492 l 11.5958,0.26998 115.7215,66.88024 c 130.8356,75.61535 182.1643,105.34321 239.2941,138.59106 l 39.693,23.1002 0.3821,141.09776 0.3821,141.09773 h -26.22 -26.22 V 924.95041 799.15866 l -11.3352,-6.39356 c -6.2343,-3.51648 -49.2039,-28.21892 -95.4879,-54.89434 -128.7244,-74.18913 -267.5194,-153.58762 -275.9646,-157.86713 l -7.5762,-3.83911 -50.0911,28.73745 c -27.5501,15.80561 -63.5717,36.4399 -80.0481,45.85399 -16.4764,9.4141 -81.3542,46.73567 -144.173,82.93685 l -114.2159,65.82031 0.3793,224.70228 0.3793,224.7023 119.0791,68.7832 c 178.3744,103.0336 257.0513,147.9589 264.9961,151.3155 l 7.1439,3.0182 66.6772,-38.3934 c 36.6724,-21.1164 67.7526,-38.3934 69.0671,-38.3934 1.9082,0 2.4792,2.0378 2.8328,10.1105 l 0.4429,10.1104 28.0847,0.4076 c 21.5906,0.3132 28.0847,0.8503 28.0847,2.3225 0,2.1008 -194.458,114.8999 -197.8598,114.7723 -1.1568,-0.043 -100.512,-56.9586 -220.7894,-126.4783 z"
       id="path23576" />
    <path
       style="opacity:0.91;fill:#00ff00;stroke-width:1.40295"
       d="m 1682.8328,1482.0482 c -49.3836,-28.5523 -148.3439,-85.7422 -219.9116,-127.0886 l -130.1232,-75.1754 v -76.7277 c 0,-42.2003 -0.3879,-157.1686 -0.8619,-255.48512 l -0.8619,-178.75738 139.8396,-80.66935 c 76.9118,-44.36814 153.8478,-88.79612 170.969,-98.72883 59.0193,-34.23957 125.559,-72.36798 129.1408,-73.99997 3.2751,-1.4922 5.3556,-0.60681 23.6386,10.05939 11.0261,6.43258 20.3632,12.04663 20.749,12.47567 0.3858,0.42904 1.3735,0.89886 2.1948,1.04405 1.2423,0.21957 106.6001,61.00198 360.1158,207.75581 l 37.5288,21.72446 v 141.51613 141.51614 h -25.7487 -25.7486 l -0.9073,-10.7338 c -0.4991,-5.9036 -0.9074,-62.69499 -0.9074,-126.20318 V 799.10109 l -9.4698,-5.46586 C 1920.1606,659.55075 1776.0361,577.31197 1773.3594,577.31197 c -2.2157,0 -112.0973,62.5967 -292.9014,166.8584 l -95.751,55.21535 0.01,224.61778 0.01,224.6178 110.4718,63.7706 c 234.1378,135.1576 275.499,158.5962 279.8687,158.5962 1.2151,0 31.4655,-16.8425 67.2229,-37.4278 35.7574,-20.5853 66.3455,-37.6878 67.9735,-38.0055 3.5013,-0.6833 4.708,2.5394 4.737,12.6515 l 0.019,6.664 12.2758,0.01 c 23.3507,0.013 43.842,1.6938 43.842,3.5981 0,1.664 -195.6743,115.8947 -197.962,115.5662 -0.3051,-0.044 -40.9596,-23.4412 -90.3433,-51.9934 z"
       id="path23615" />
    <path
       style="opacity:0.91;fill:#00ff00;stroke-width:1.40295"
       d="m 1738.9507,1514.5436 c -18.5189,-10.719 -117.3213,-67.7964 -219.561,-126.8387 l -185.8902,-107.3495 -0.8487,-128.8042 c -0.4668,-70.8422 -0.9403,-185.9619 -1.0522,-255.82144 l -0.2035,-127.01733 141.9421,-82.02151 c 78.0681,-45.11183 158.72,-91.7291 179.2262,-103.59393 77.2315,-44.68574 119.9346,-68.91755 121.4516,-68.91755 0.8622,0 10.6869,5.28342 21.8327,11.74094 11.1457,6.45751 57.5131,33.20774 103.0387,59.44496 79.903,46.04954 187.791,108.43977 274.6265,158.81294 l 41.7377,24.21194 v 141.55863 141.55865 h -25.9545 c -14.275,0 -26.0939,-0.1579 -26.2643,-0.3508 -0.1704,-0.1929 -0.6439,-57.05396 -1.0522,-126.35794 l -0.7424,-126.00725 -42.0884,-24.20311 c -23.1486,-13.31172 -86.5968,-49.81651 -140.996,-81.12175 -92.506,-53.23467 -180.5531,-103.44597 -197.4645,-112.60957 l -7.3655,-3.99104 -7.3655,3.96674 c -11.1601,6.0104 -195.2202,111.43971 -293.917,168.35514 l -87.3333,50.3625 0.026,224.53538 0.027,224.5355 106.948,61.6637 c 229.0287,132.0525 279.4861,160.7031 283.0193,160.7031 0.9673,0 31.5859,-17.0458 68.0412,-37.8795 36.4553,-20.8338 67.2423,-37.8795 68.4155,-37.8795 2.88,0 3.8362,3.0008 3.8362,12.0397 v 7.6015 l 16.4846,0.01 c 23.8881,0.013 39.6332,1.4331 39.6332,3.5766 0,1.8313 -194.947,115.7925 -197.7869,115.6214 -0.4014,-0.024 -15.8817,-8.8141 -34.4005,-19.5331 z"
       id="path23654" />
    <path
       style="opacity:0.91;fill:#000080;stroke-width:1.40295"
       d="m 1553.0604,1407.2999 -219.5609,-126.7986 -0.8529,-107.1314 c -0.469,-58.9223 -0.9425,-174.10665 -1.0522,-255.96518 l -0.1993,-148.83367 144.1526,-83.28131 c 79.2839,-45.80471 171.6153,-99.14569 205.1807,-118.5355 33.5655,-19.38981 68.2175,-39.27866 77.0044,-44.19744 l 15.9763,-8.94324 7.8738,4.19793 c 10.8586,5.78928 160.5411,92.1899 392.9823,226.83943 l 39.9839,23.16207 0.3574,141.87822 0.3574,141.87819 -26.3119,-0.3817 -26.3119,-0.3817 -0.3582,-125.81318 -0.3582,-125.81319 -12.9698,-7.38488 c -7.1333,-4.06168 -58.4252,-33.55493 -113.9818,-65.54055 C 1920.3927,660.2874 1803.8478,593.69556 1785.544,583.73508 l -12.3304,-6.70988 -22.0418,12.32379 c -23.5154,13.14771 -205.2368,117.34923 -305.7796,175.33814 l -60.6695,34.99167 0.041,224.4712 0.041,224.4713 103.418,59.5743 c 173.0157,99.6664 261.3372,150.1092 274.2481,156.6307 12.1648,6.1446 12.3462,6.1869 16.8354,3.9171 2.4959,-1.262 32.7611,-18.3708 67.2561,-38.0196 34.5523,-19.6815 63.8493,-35.5093 65.2369,-35.2446 2.0748,0.3956 2.5921,2.1475 2.9337,9.9357 l 0.4149,9.4554 19.2264,0.01 c 23.7596,0.013 38.1877,1.2807 38.1016,3.3495 -0.072,1.7442 -196.1439,115.9169 -199.0028,115.8798 -0.4688,-0.01 -99.6548,-57.0703 -220.4133,-126.8095 z"
       id="path23693" />
    <path
       style="opacity:0.91;fill:#000080;stroke-width:1.40295"
       d="m 1914.6032,1403.296 c -0.6677,-8.5535 -0.4068,-10.5061 1.6405,-12.2758 1.339,-1.1574 57.1604,-33.6707 124.0475,-72.2517 l 121.6129,-70.1472 0.017,-97.8554 0.017,-97.8555 h 27.3575 27.3574 v 112.7653 c 0,88.5298 -0.3769,113.0664 -1.7537,114.1663 -0.9645,0.7705 -53.3199,31.1514 -116.3454,67.5131 l -114.5917,66.1123 h -34.2827 -34.2827 z"
       id="path23769" />
    <path
       style="opacity:0.91;fill:#000080;stroke-width:1.40295"
       d="m 1667.1457,1472.6735 c -58.5538,-33.7208 -157.3397,-90.6672 -219.5242,-126.5475 l -113.0626,-65.237 -0.8691,-44.8942 c -0.4779,-24.6919 -1.2393,-139.9087 -1.6918,-256.03754 l -0.8229,-211.14326 170.1737,-98.20617 c 93.5955,-54.01339 193.1333,-111.37678 221.1951,-127.47421 l 51.0216,-29.26804 7.2441,3.92948 c 10.497,5.69395 107.9345,61.83993 281.0218,161.93192 l 151.6305,87.68408 1.0676,141.40733 c 0.5871,77.77402 0.7052,141.76961 0.2624,142.21251 -0.4429,0.4428 -12.2003,0.3429 -26.1277,-0.2221 l -25.3226,-1.0272 -0.2016,-52.79972 c -0.1108,-29.03985 -0.5844,-85.59232 -1.0522,-125.67216 l -0.8506,-72.87244 -59.6252,-34.25805 C 1861.8724,626.43526 1775.5317,577.31197 1773.1678,577.31197 c -1.6428,0 -92.023,51.47792 -254.4796,144.94402 -67.1309,38.62245 -124.7393,71.7388 -128.0187,73.59193 l -5.9625,3.3693 v 224.89468 224.8948 l 12.2757,7.0097 c 6.7517,3.8553 49.8397,28.6334 95.7511,55.0625 240.5832,138.4925 277.5402,159.2545 282.7155,158.8261 1.615,-0.1337 23.4201,-11.8309 48.4558,-25.9939 60.5783,-34.2699 84.5944,-47.2791 87.2815,-47.2791 1.2237,0 2.5137,1.1048 2.8666,2.4552 0.3529,1.3503 0.7148,0.4463 0.8043,-2.0089 0.1154,-3.1632 1.2871,-5.2577 4.0209,-7.1873 3.3476,-2.363 115.7961,-67.6242 211.8447,-122.9475 l 31.2155,-17.9799 v -98.0266 -98.0266 h 27.3575 27.3574 l -0.01,93.6466 c 0,51.5056 -0.4111,102.5212 -0.9074,113.368 l -0.9023,19.7214 -8.5624,4.9543 c -4.7094,2.7248 -56.7637,32.8345 -115.6763,66.9104 l -107.1133,61.9563 -34.5837,0.2143 -34.5837,0.2144 26.5147,1.1175 c 26.9668,1.1365 31.8876,2.2549 26.7218,6.0734 -5.8527,4.3262 -146.7819,86.4952 -186.0234,108.4611 l -7.9247,4.436 z"
       id="path23808" />
    <path
       style="opacity:0.91;fill:#000080;stroke-width:1.40295"
       d="m 1732.6374,1510.6651 c -39.4058,-22.8147 -290.0558,-167.4805 -361.4149,-208.5953 l -36.6331,-21.1067 -0.8846,-36.5136 c -0.4865,-20.0825 -1.2858,-135.3161 -1.7761,-256.07456 L 1331.0372,768.814 1481.682,681.8962 c 215.3964,-124.27763 286.3128,-165.06616 289.7233,-166.63829 3.6117,-1.66488 -3.6315,-5.78372 373.12,212.17232 l 68.8678,39.84098 0.9275,89.15695 c 0.5102,49.03632 0.9281,113.08805 0.9288,142.33719 v 53.18025 l -25.5246,-0.9583 c -14.0385,-0.527 -25.6934,-1.127 -25.8997,-1.3333 -0.2063,-0.2064 -0.8733,-56.79319 -1.4821,-125.74852 l -1.107,-125.37335 -77.8635,-44.75165 C 1886.6162,640.69501 1775.2386,577.31197 1773.2806,577.31197 c -1.3116,0 -95.7804,53.82229 -249.3313,142.05311 l -139.2423,80.00903 v 224.72139 224.7214 l 88.7363,51.0379 c 243.8313,140.243 296.0895,169.7327 300.7697,169.7274 3.3695,0 10.2473,-3.6407 63.6453,-33.6536 62.8075,-35.3016 71.2371,-39.7057 74.4092,-38.8762 1.9978,0.5224 2.7528,0.013 2.7528,-1.8592 0,-1.4184 1.7361,-3.7971 3.8581,-5.2859 3.8487,-2.7003 85.6962,-50.2776 188.6961,-109.6876 l 54.3641,-31.357 v -97.9761 -97.9762 h 27.3575 27.3574 v 96.583 c 0,53.1206 -0.4081,104.1729 -0.9069,113.4495 l -0.9069,16.8665 -22.5924,13.0793 c -12.4259,7.1937 -64.4309,37.2667 -115.5668,66.829 l -92.9743,53.7497 -33.2908,0.2147 -33.2907,0.2147 25.0914,1.0968 c 24.6256,1.0764 30.8604,2.4155 26.1044,5.6064 -15.1671,10.1761 -188.9911,111.2248 -193.7642,112.6405 -1.0642,0.3157 -19.9277,-9.8433 -41.9189,-22.5754 z"
       id="path23847" />
    <path
       style="opacity:0.91;fill:#000000;stroke-width:1.40295"
       d="M 1550.956,1408.6183 1329.2906,1280.5028 V 1023.9986 767.49428 L 1550.956,639.44743 c 121.9159,-70.42578 222.3807,-127.89511 223.2551,-127.70964 0.8744,0.18548 101.0935,57.78784 222.709,128.00525 l 221.1192,127.66802 0.01,256.21644 c 0.01,203.2993 -0.3536,256.5057 -1.7451,257.6168 -2.5634,2.0469 -439.5186,254.1363 -441.774,254.8695 -1.0489,0.341 -101.6567,-57.032 -223.5726,-127.4955 z m 418.4284,-50.9846 191.1513,-110.3705 V 1023.987 800.71085 L 2016.3831,717.47767 C 1803.984,594.83926 1775.7368,578.7126 1773.3685,578.73781 c -1.1826,0.0126 -88.326,49.78701 -193.6521,110.60984 l -191.5021,110.58693 v 224.05782 224.0577 l 177.4726,102.535 c 189.324,109.3821 207.1593,119.3992 210.4418,118.1926 1.1574,-0.4255 88.1225,-50.4403 193.2557,-111.144 z"
       id="path23886"
       inkscape:export-filename="/home/alex/Code/diplomarbeit/shulker/shulker-docs/images/logo.png"
       inkscape:export-xdpi="96"
       inkscape:export-ydpi="96" />
    <path
       style="opacity:0.91;fill:#e3e2db;stroke-width:1.40295"
       d="m 1766.9184,1465.5489 c -9.7063,-4.5989 -87.7079,-49.2262 -257.3493,-147.2378 l -121.3548,-70.1136 V 1024.0129 799.82827 l 11.2236,-6.48398 c 321.1569,-185.53592 372.6617,-214.90962 375.5192,-214.16236 2.8764,0.75219 85.8416,48.23947 258.6121,148.02335 l 126.265,72.92462 0.355,223.6752 0.3551,223.6752 -99.2627,57.2989 c -97.9892,56.5638 -263.0622,151.6559 -278.2293,160.2771 l -7.8074,4.4377 z m 25.6893,-247.1124 c 10.2208,-0.7798 23.163,-2.3697 28.7603,-3.5332 50.8478,-10.5699 83.9706,-39.3642 95.1626,-82.7265 3.6263,-14.0499 3.9417,-38.0548 0.6637,-50.506 -7.1935,-27.3231 -25.9546,-48.5469 -54.6135,-61.7824 -9.5696,-4.4195 -19.0897,-7.1884 -96.0187,-27.92696 -18.7649,-5.05867 -38.8338,-11.16077 -44.5976,-13.56021 -14.7399,-6.13623 -25.6071,-14.51938 -30.4954,-23.52463 -9.7705,-17.99932 -6.4294,-43.99365 7.7609,-60.38097 16.676,-19.25781 50.3613,-29.34885 85.3153,-25.55777 26.5956,2.88454 44.6671,10.17555 58.1776,23.47186 11.4026,11.22192 16.3787,22.7658 19.7466,45.80992 l 0.769,5.26105 h 21.8897 21.8897 l -0.8706,-12.27577 c -2.0929,-29.51031 -15.424,-56.28589 -36.5533,-73.41767 -26.5468,-21.52423 -71.1234,-32.31779 -116.4866,-28.20544 -59.5382,5.39734 -98.4925,32.83039 -110.934,78.12377 -3.4851,12.68789 -4.2884,38.41373 -1.5946,51.07554 4.5604,21.43657 15.1396,37.48815 32.2499,48.93218 14.671,9.8126 25.7594,13.7014 78.7485,27.6179 25.4634,6.6875 52.6104,14.0561 60.3266,16.3747 39.9917,12.0171 58.6554,28.9613 60.6211,55.036 1.3796,18.2995 -4.5278,34.1018 -17.6556,47.2291 -9.3631,9.3627 -21.2692,15.4458 -38.9182,19.8844 -10.6987,2.6906 -16.1427,3.1304 -38.4195,3.1034 -29.9864,-0.036 -43.4912,-2.5412 -61.7295,-11.4495 -25.445,-12.4283 -43.4913,-40.6441 -43.4913,-67.9994 v -8.1229 h -22.6485 -22.6484 l 0.9284,12.2985 c 4.5442,60.1962 39.2964,99.5293 99.6412,112.7758 10.6425,2.3361 21.8828,3.6748 43.6349,5.1965 1.5432,0.108 11.1684,-0.4416 21.3893,-1.2213 z"
       id="path24073"
       inkscape:export-filename="/home/alex/Code/diplomarbeit/shulker/shulker-docs/images/logo.png"
       inkscape:export-xdpi="96"
       inkscape:export-ydpi="96" />
  </g>
</svg>
